<svg viewBox="0 0 16 16" fill="none" xmlns="http://www.w3.org/2000/svg">
<path d="M2 2L14 14" stroke="#757575" stroke-width="1.5" stroke-linecap="round" stroke-linejoin="round"/>
<path d="M7.05598 7.05792C6.80579 7.30793 6.66516 7.64709 6.66504 8.00078C6.66491 8.35448 6.8053 8.69374 7.05531 8.94392C7.30532 9.19411 7.64448 9.33473 7.99817 9.33486C8.35186 9.33498 8.69112 9.1946 8.94131 8.94459" stroke="#757575" stroke-width="1.5" stroke-linecap="round" stroke-linejoin="round"/>
<path d="M6.24167 3.57669C6.81329 3.41317 7.40514 3.33125 7.99967 3.33335C10.6663 3.33335 12.8883 4.88869 14.6663 8.00002C14.1477 8.90735 13.5917 9.68269 12.9977 10.3254M11.571 11.566C10.4837 12.2994 9.29434 12.6667 7.99967 12.6667C5.33301 12.6667 3.11101 11.1114 1.33301 8.00002C2.24567 6.40335 3.27501 5.21669 4.42101 4.43935" stroke="#757575" stroke-width="1.5" stroke-linecap="round" stroke-linejoin="round"/>
</svg>
